<svg width="200" height="52" viewBox="0 0 200 52" fill="none" xmlns="http://www.w3.org/2000/svg">
<g clip-path="url(#clip0_2475:30725)">
<g clip-path="url(#clip1_2475:30725)">
<path d="M92.5504 0H0V35.2301H92.5504V0Z" fill="#ABDFE2"/>
</g>
<g clip-path="url(#clip2_2475:30725)">
<path d="M13.9142 47.272H12.94L12.6309 49.7601H11.7598L12.5794 43.1327H14.4293C14.7853 43.1327 15.0944 43.1744 15.3567 43.2576C15.6189 43.3409 15.8352 43.4596 16.0053 43.6137C16.1755 43.7679 16.3027 43.9529 16.387 44.1687C16.4713 44.3845 16.5135 44.625 16.5135 44.8902C16.5135 45.2386 16.4557 45.5585 16.3402 45.8498C16.2247 46.1412 16.0568 46.3917 15.8367 46.6014C15.6166 46.811 15.345 46.9752 15.0218 47.0939C14.6986 47.2126 14.3294 47.272 13.9142 47.272ZM14.345 43.8126H13.3709L13.0243 46.5875H13.9985C14.2639 46.5875 14.498 46.5474 14.701 46.4672C14.9039 46.3871 15.0741 46.2753 15.2115 46.1319C15.3489 45.9886 15.4535 45.8175 15.5253 45.6186C15.5971 45.4197 15.633 45.2031 15.633 44.9688C15.633 44.79 15.6065 44.6296 15.5534 44.4878C15.5003 44.346 15.4207 44.225 15.3145 44.1248C15.2084 44.0246 15.0741 43.9475 14.9117 43.8935C14.7494 43.8396 14.5605 43.8126 14.345 43.8126ZM18.1246 49.7601H17.3097L17.8811 45.0705H18.2979C18.3853 45.0705 18.454 45.0906 18.504 45.1307C18.5539 45.1708 18.5789 45.2324 18.5789 45.3157C18.5789 45.328 18.5781 45.3457 18.5766 45.3688C18.575 45.392 18.5734 45.4159 18.5719 45.4405C18.5703 45.4652 18.5687 45.4868 18.5672 45.5053C18.5656 45.5238 18.5648 45.5346 18.5648 45.5377L18.4993 46.3886C18.7022 45.957 18.9294 45.624 19.1807 45.3897C19.4321 45.1553 19.6967 45.0382 19.9746 45.0382C20.1057 45.0382 20.2368 45.0659 20.368 45.1214L20.2181 45.9123C20.0714 45.8537 19.9293 45.8244 19.7919 45.8244C19.489 45.8244 19.219 45.9701 18.9817 46.2614C18.7444 46.5528 18.5461 46.9945 18.3869 47.5865L18.1246 49.7601ZM24.6721 46.0788C24.6721 46.2823 24.6299 46.4696 24.5456 46.6407C24.4613 46.8118 24.3068 46.966 24.082 47.1032C23.8572 47.2404 23.548 47.3598 23.1546 47.4616C22.7612 47.5633 22.2554 47.645 21.6372 47.7067C21.6341 47.7406 21.6325 47.7738 21.6325 47.8061C21.6325 47.8385 21.6325 47.8716 21.6325 47.9056C21.6325 48.3187 21.7238 48.634 21.9065 48.8513C22.0892 49.0687 22.3647 49.1774 22.7331 49.1774C22.883 49.1774 23.0165 49.162 23.1336 49.1311C23.2506 49.1003 23.3552 49.0625 23.4474 49.0178C23.5395 48.9731 23.6206 48.9238 23.6909 48.8698C23.7611 48.8159 23.8259 48.7666 23.8853 48.7218C23.9446 48.6771 23.9992 48.6394 24.0492 48.6085C24.0991 48.5777 24.1491 48.5623 24.1991 48.5623C24.2553 48.5623 24.3068 48.5885 24.3536 48.6409L24.5597 48.8953C24.4004 49.0587 24.2451 49.1982 24.0937 49.3138C23.9422 49.4294 23.7869 49.5258 23.6277 49.6029C23.4684 49.68 23.3022 49.7362 23.1289 49.7717C22.9556 49.8071 22.769 49.8249 22.5692 49.8249C22.2976 49.8249 22.054 49.7802 21.8386 49.6907C21.6231 49.6013 21.4405 49.4741 21.2906 49.3092C21.1407 49.1442 21.0252 48.9446 20.944 48.7103C20.8629 48.476 20.8223 48.2139 20.8223 47.9241C20.8223 47.6836 20.848 47.4439 20.8996 47.2049C20.9511 46.966 21.026 46.7386 21.1244 46.5227C21.2227 46.3069 21.3429 46.1065 21.485 45.9215C21.627 45.7365 21.7894 45.577 21.9721 45.4428C22.1547 45.3087 22.3561 45.2031 22.5762 45.126C22.7964 45.049 23.0329 45.0104 23.2858 45.0104C23.5262 45.0104 23.7338 45.0443 23.9087 45.1122C24.0835 45.18 24.2272 45.2663 24.3396 45.3712C24.452 45.476 24.5355 45.5916 24.5901 45.718C24.6448 45.8444 24.6721 45.9647 24.6721 46.0788ZM23.2389 45.6024C23.0422 45.6024 22.8611 45.6425 22.6957 45.7226C22.5302 45.8028 22.3834 45.913 22.2554 46.0533C22.1274 46.1936 22.0181 46.3586 21.9276 46.5482C21.837 46.7378 21.7668 46.9421 21.7168 47.161C22.1976 47.1024 22.5833 47.0353 22.8736 46.9598C23.164 46.8842 23.3872 46.8025 23.5434 46.7147C23.6995 46.6268 23.8025 46.532 23.8525 46.4302C23.9024 46.3285 23.9274 46.2221 23.9274 46.1111C23.9274 46.0556 23.9149 45.9978 23.8899 45.9377C23.865 45.8776 23.8252 45.8229 23.7705 45.7735C23.7159 45.7242 23.6448 45.6833 23.5574 45.651C23.47 45.6186 23.3638 45.6024 23.2389 45.6024ZM29.304 49.7601H28.8731C28.7639 49.7601 28.6897 49.7324 28.6507 49.6769C28.6117 49.6214 28.5921 49.5535 28.5921 49.4734L28.6811 48.4975C28.5625 48.698 28.4329 48.8799 28.2924 49.0433C28.1519 49.2067 28.0044 49.3462 27.8498 49.4618C27.6953 49.5774 27.5345 49.6669 27.3674 49.7301C27.2004 49.7933 27.031 49.8249 26.8593 49.8249C26.4534 49.8249 26.1388 49.6792 25.9155 49.3878C25.6923 49.0965 25.5807 48.6733 25.5807 48.1183C25.5807 47.8655 25.6072 47.6127 25.6603 47.3598C25.7134 47.107 25.7891 46.865 25.8874 46.6337C25.9858 46.4025 26.1044 46.1874 26.2434 45.9886C26.3823 45.7897 26.5369 45.6178 26.707 45.4729C26.8772 45.328 27.0622 45.2139 27.262 45.1307C27.4619 45.0474 27.6711 45.0058 27.8896 45.0058C28.1207 45.0058 28.3322 45.0505 28.5242 45.1399C28.7163 45.2293 28.8794 45.3573 29.0137 45.5238L29.3368 42.9478H30.1564L29.304 49.7601ZM27.1731 49.1635C27.3229 49.1635 27.4736 49.118 27.625 49.0271C27.7764 48.9361 27.9232 48.8097 28.0653 48.6478C28.2073 48.486 28.34 48.2933 28.4633 48.0697C28.5867 47.8462 28.6936 47.6019 28.7842 47.3367L28.9387 46.0973C28.8201 45.9338 28.678 45.8182 28.5125 45.7504C28.347 45.6826 28.18 45.6486 28.0114 45.6486C27.7647 45.6486 27.5423 45.7211 27.344 45.866C27.1457 46.0109 26.9771 46.1982 26.8382 46.4279C26.6992 46.6576 26.5923 46.9143 26.5174 47.198C26.4424 47.4816 26.405 47.7607 26.405 48.0351C26.405 48.402 26.4721 48.6818 26.6064 48.8745C26.7406 49.0672 26.9295 49.1635 27.1731 49.1635ZM31.7441 45.0752H32.5637L31.9923 49.7601H31.1727L31.7441 45.0752ZM32.8775 43.6045C32.8775 43.6846 32.8611 43.7594 32.8283 43.8288C32.7956 43.8982 32.7518 43.9598 32.6972 44.0138C32.6426 44.0677 32.5809 44.1101 32.5122 44.141C32.4435 44.1718 32.3717 44.1872 32.2968 44.1872C32.225 44.1872 32.1547 44.1718 32.086 44.141C32.0173 44.1101 31.9572 44.0677 31.9057 44.0138C31.8542 43.9598 31.8128 43.8982 31.7816 43.8288C31.7504 43.7594 31.7347 43.6846 31.7347 43.6045C31.7347 43.5243 31.7504 43.4488 31.7816 43.3779C31.8128 43.3069 31.855 43.2445 31.908 43.1906C31.9611 43.1366 32.022 43.0934 32.0907 43.0611C32.1594 43.0287 32.2296 43.0125 32.3014 43.0125C32.3764 43.0125 32.4482 43.0279 32.5169 43.0587C32.5856 43.0896 32.6472 43.132 32.7019 43.1859C32.7565 43.2399 32.7995 43.3031 32.8307 43.3755C32.8619 43.448 32.8775 43.5243 32.8775 43.6045ZM37.3128 48.9184C37.1504 49.0941 36.9966 49.2406 36.8514 49.3578C36.7062 49.4749 36.5603 49.5682 36.4135 49.6376C36.2668 49.7069 36.1146 49.7555 35.9569 49.7832C35.7992 49.811 35.6298 49.8249 35.4487 49.8249C35.174 49.8249 34.9312 49.7786 34.7205 49.6861C34.5097 49.5936 34.3333 49.4634 34.1912 49.2953C34.0492 49.1273 33.9414 48.9253 33.8681 48.6895C33.7947 48.4536 33.758 48.1938 33.758 47.9102C33.758 47.531 33.8181 47.1671 33.9383 46.8187C34.0585 46.4703 34.2264 46.162 34.4418 45.8938C34.6572 45.6255 34.9133 45.4112 35.2099 45.2509C35.5065 45.0906 35.8328 45.0104 36.1887 45.0104C36.501 45.0104 36.7632 45.0652 36.9755 45.1746C37.1879 45.2841 37.3736 45.4436 37.5329 45.6533L37.2706 45.9631C37.2519 45.9878 37.2285 46.0078 37.2004 46.0233C37.1723 46.0387 37.141 46.0464 37.1067 46.0464C37.063 46.0464 37.02 46.0271 36.9779 45.9886C36.9357 45.95 36.8811 45.9069 36.814 45.8591C36.7468 45.8113 36.6625 45.7681 36.5611 45.7296C36.4596 45.691 36.3292 45.6718 36.17 45.6718C35.9545 45.6718 35.7508 45.7296 35.5588 45.8452C35.3668 45.9608 35.199 46.1188 35.0553 46.3192C34.9117 46.5197 34.7985 46.7571 34.7158 47.0315C34.633 47.3059 34.5917 47.6003 34.5917 47.9148C34.5917 48.106 34.6135 48.2794 34.6572 48.4351C34.7009 48.5908 34.7665 48.7234 34.8539 48.8328C34.9414 48.9423 35.0483 49.0271 35.1748 49.0872C35.3012 49.1473 35.4487 49.1774 35.6173 49.1774C35.7578 49.1774 35.8827 49.1627 35.992 49.1335C36.1013 49.1042 36.1981 49.0679 36.2824 49.0248C36.3667 48.9816 36.4408 48.9346 36.5049 48.8837C36.5689 48.8328 36.6266 48.7858 36.6781 48.7427C36.7297 48.6995 36.7765 48.6633 36.8187 48.634C36.8608 48.6047 36.9037 48.59 36.9474 48.59C37.0099 48.59 37.063 48.6162 37.1067 48.6687L37.3128 48.9184ZM38.7459 48.8768C38.7459 48.8583 38.7467 48.8344 38.7482 48.8051C38.7498 48.7758 38.7529 48.7334 38.7576 48.6779C38.7623 48.6224 38.7693 48.55 38.7787 48.4605C38.788 48.3711 38.8021 48.254 38.8208 48.1091L39.1159 45.7643H38.5867C38.5461 45.7643 38.5125 45.7527 38.486 45.7296C38.4594 45.7065 38.4462 45.6702 38.4462 45.6209C38.4462 45.6117 38.4477 45.5932 38.4508 45.5654C38.454 45.5377 38.4579 45.5061 38.4625 45.4706C38.4672 45.4351 38.4719 45.3989 38.4766 45.3619C38.4813 45.3249 38.4852 45.2895 38.4883 45.2555L39.2189 45.1584L39.5702 43.7108C39.5827 43.6646 39.6061 43.6268 39.6404 43.5975C39.6748 43.5683 39.7169 43.5536 39.7669 43.5536H40.2071L40.0011 45.1677H41.2469L41.1766 45.7643H39.9261L39.6404 48.0674C39.6248 48.1938 39.6131 48.2956 39.6053 48.3727C39.5975 48.4498 39.5913 48.5114 39.5866 48.5577C39.5819 48.6039 39.5788 48.6363 39.5772 48.6548C39.5757 48.6733 39.5749 48.6872 39.5749 48.6964C39.5749 48.8537 39.6116 48.97 39.6849 49.0456C39.7583 49.1211 39.859 49.1589 39.987 49.1589C40.0682 49.1589 40.14 49.1473 40.2025 49.1242C40.2649 49.1011 40.3188 49.0756 40.364 49.0479C40.4093 49.0201 40.4476 48.9947 40.4788 48.9716C40.51 48.9485 40.5381 48.9369 40.5631 48.9369C40.5881 48.9369 40.6076 48.9431 40.6216 48.9554C40.6357 48.9677 40.6505 48.9878 40.6661 49.0155L40.8394 49.4086C40.6895 49.5412 40.517 49.6453 40.3219 49.7208C40.1267 49.7963 39.9308 49.8341 39.7341 49.8341C39.4312 49.8341 39.1924 49.7524 39.0175 49.589C38.8427 49.4256 38.7521 49.1882 38.7459 48.8768ZM42.6941 45.0752H43.5137L42.9423 49.7601H42.1227L42.6941 45.0752ZM43.8275 43.6045C43.8275 43.6846 43.8111 43.7594 43.7783 43.8288C43.7455 43.8982 43.7018 43.9598 43.6471 44.0138C43.5925 44.0677 43.5308 44.1101 43.4621 44.141C43.3935 44.1718 43.3216 44.1872 43.2467 44.1872C43.1749 44.1872 43.1046 44.1718 43.036 44.141C42.9673 44.1101 42.9072 44.0677 42.8556 44.0138C42.8041 43.9598 42.7627 43.8982 42.7315 43.8288C42.7003 43.7594 42.6847 43.6846 42.6847 43.6045C42.6847 43.5243 42.7003 43.4488 42.7315 43.3779C42.7627 43.3069 42.8049 43.2445 42.858 43.1906C42.9111 43.1366 42.9719 43.0934 43.0406 43.0611C43.1093 43.0287 43.1796 43.0125 43.2514 43.0125C43.3263 43.0125 43.3981 43.0279 43.4668 43.0587C43.5355 43.0896 43.5972 43.132 43.6518 43.1859C43.7065 43.2399 43.7494 43.3031 43.7806 43.3755C43.8118 43.448 43.8275 43.5243 43.8275 43.6045ZM45.5931 49.7601H44.7595L45.3262 45.0705H45.743C45.9303 45.0705 46.024 45.163 46.024 45.348L45.9538 46.2545C46.2067 45.8414 46.4916 45.5299 46.8085 45.3203C47.1254 45.1106 47.454 45.0058 47.7944 45.0058C48.1472 45.0058 48.4212 45.123 48.6163 45.3573C48.8114 45.5916 48.909 45.9338 48.909 46.384C48.909 46.4457 48.9075 46.5089 48.9043 46.5736C48.9012 46.6384 48.895 46.7062 48.8856 46.7771L48.5297 49.7601H47.696L48.0519 46.7771C48.0582 46.7154 48.0637 46.6561 48.0683 46.5991C48.073 46.542 48.0754 46.4873 48.0754 46.4349C48.0754 46.182 48.0277 45.9947 47.9325 45.873C47.8373 45.7512 47.6882 45.6903 47.4852 45.6903C47.3354 45.6903 47.1832 45.7304 47.0286 45.8105C46.8741 45.8907 46.725 46.004 46.5813 46.1504C46.4377 46.2969 46.3042 46.4742 46.1809 46.6823C46.0576 46.8904 45.9522 47.1224 45.8648 47.3783L45.5931 49.7601ZM53.644 46.3747C53.6409 46.5289 53.6214 46.6677 53.5855 46.791C53.5496 46.9143 53.5051 47.0284 53.452 47.1332C53.3989 47.238 53.3411 47.3367 53.2787 47.4292C53.2162 47.5217 53.1585 47.6142 53.1054 47.7067C53.0523 47.7992 53.0078 47.894 52.9719 47.9911C52.936 48.0882 52.9181 48.1938 52.9181 48.3079C52.9181 48.4374 52.9501 48.5546 53.0141 48.6594C53.0781 48.7642 53.1483 48.8722 53.2248 48.9831C53.3013 49.0941 53.3716 49.2152 53.4356 49.3462C53.4996 49.4772 53.5316 49.6322 53.5316 49.811C53.5316 50.0299 53.4801 50.2372 53.377 50.433C53.274 50.6288 53.1273 50.8022 52.9368 50.9533C52.7463 51.1044 52.5145 51.2239 52.2413 51.3117C51.9681 51.3996 51.6613 51.4436 51.321 51.4436C51.0494 51.4436 50.8019 51.4158 50.5787 51.3603C50.3554 51.3048 50.165 51.2262 50.0073 51.1244C49.8496 51.0227 49.7278 50.9001 49.642 50.7568C49.5561 50.6134 49.5132 50.4554 49.5132 50.2827C49.5132 50.0391 49.5772 49.8295 49.7052 49.6537C49.8332 49.478 50.0018 49.3331 50.211 49.219C50.4202 49.1049 50.6583 49.0217 50.9253 48.9693C51.1922 48.9169 51.4646 48.8907 51.7425 48.8907C51.8549 48.8907 51.9665 48.8953 52.0774 48.9045C52.1882 48.9138 52.2983 48.9261 52.4076 48.9415C52.3795 48.8829 52.3568 48.822 52.3397 48.7588C52.3225 48.6956 52.3139 48.627 52.3139 48.553C52.3139 48.4575 52.3287 48.3588 52.3584 48.2571C52.3881 48.1553 52.4372 48.0412 52.5059 47.9148C52.3873 47.995 52.2546 48.0566 52.1078 48.0998C51.9611 48.143 51.794 48.1646 51.6067 48.1646C51.4256 48.1646 51.2562 48.1353 51.0985 48.0767C50.9409 48.0181 50.8027 47.9318 50.6841 47.8177C50.5654 47.7036 50.4717 47.561 50.403 47.3899C50.3344 47.2188 50.3 47.0191 50.3 46.791C50.3 46.569 50.3414 46.3509 50.4241 46.1366C50.5069 45.9223 50.6278 45.7311 50.7871 45.5631C50.9463 45.3951 51.143 45.2602 51.3772 45.1584C51.6114 45.0567 51.8815 45.0058 52.1874 45.0058C52.5309 45.0058 52.8291 45.086 53.082 45.2463H54.3699L54.3325 45.5192C54.3262 45.5716 54.3083 45.6194 54.2786 45.6625C54.249 45.7057 54.2045 45.7319 54.1451 45.7411L53.555 45.8429C53.5831 45.9231 53.605 46.0071 53.6206 46.0949C53.6362 46.1828 53.644 46.2761 53.644 46.3747ZM51.8362 47.6466C52.0048 47.6466 52.1531 47.6103 52.2811 47.5379C52.4091 47.4654 52.5176 47.3699 52.6066 47.2512C52.6956 47.1324 52.7635 46.9991 52.8103 46.8511C52.8572 46.7031 52.8806 46.5536 52.8806 46.4025C52.8806 46.1312 52.8111 45.9261 52.6722 45.7874C52.5332 45.6487 52.342 45.5793 52.0985 45.5793C51.9299 45.5793 51.7815 45.6132 51.6535 45.681C51.5255 45.7489 51.4178 45.8398 51.3304 45.9539C51.2429 46.068 51.1766 46.1975 51.1313 46.3424C51.086 46.4873 51.0634 46.6384 51.0634 46.7956C51.0634 47.0731 51.1313 47.2843 51.2671 47.4292C51.403 47.5741 51.5926 47.6466 51.8362 47.6466ZM52.7729 49.8757C52.7729 49.7956 52.7651 49.7208 52.7495 49.6514C52.7338 49.5821 52.7136 49.5165 52.6886 49.4549C52.52 49.4271 52.3615 49.4071 52.2132 49.3948C52.0649 49.3824 51.9252 49.3763 51.794 49.3763C51.538 49.3763 51.3163 49.3986 51.129 49.4433C50.9416 49.488 50.7871 49.5474 50.6653 49.6214C50.5435 49.6954 50.453 49.7809 50.3937 49.8781C50.3344 49.9752 50.3047 50.0761 50.3047 50.181C50.3047 50.403 50.3991 50.5725 50.588 50.6897C50.7769 50.8069 51.0447 50.8654 51.3913 50.8654C51.5973 50.8654 51.7854 50.8385 51.9556 50.7845C52.1258 50.7306 52.271 50.6589 52.3912 50.5695C52.5114 50.48 52.6051 50.3752 52.6722 50.255C52.7393 50.1347 52.7729 50.0083 52.7729 49.8757ZM62.8892 43.1327L60.1306 47.1101L59.7981 49.7601H58.9223L59.2548 47.1193L57.4844 43.1327H58.2619C58.34 43.1327 58.3993 43.152 58.4399 43.1906C58.4805 43.2291 58.5132 43.2777 58.5382 43.3362L59.6529 45.9909C59.6841 46.0803 59.7107 46.1651 59.7325 46.2453C59.7544 46.3254 59.7731 46.4056 59.7887 46.4857C59.8262 46.4056 59.8675 46.3254 59.9128 46.2453C59.9581 46.1651 60.0073 46.0803 60.0603 45.9909L61.8448 43.3362C61.8791 43.2869 61.922 43.2407 61.9735 43.1975C62.0251 43.1543 62.0883 43.1327 62.1632 43.1327H62.8892ZM64.046 49.182C64.2739 49.182 64.4815 49.1204 64.6689 48.997C64.8562 48.8737 65.0155 48.7095 65.1466 48.5045C65.2777 48.2994 65.3792 48.0628 65.451 47.7946C65.5228 47.5263 65.5587 47.2458 65.5587 46.9529C65.5587 46.5212 65.4729 46.1959 65.3011 45.977C65.1294 45.7581 64.8812 45.6486 64.5565 45.6486C64.3254 45.6486 64.117 45.7095 63.9312 45.8313C63.7455 45.9531 63.587 46.1165 63.4559 46.3216C63.3247 46.5266 63.2233 46.7632 63.1514 47.0315C63.0796 47.2997 63.0437 47.5803 63.0437 47.8732C63.0437 48.3048 63.1288 48.6309 63.299 48.8513C63.4691 49.0718 63.7181 49.182 64.046 49.182ZM63.971 49.8249C63.7119 49.8249 63.4746 49.7809 63.2592 49.6931C63.0437 49.6052 62.8579 49.478 62.7018 49.3115C62.5457 49.145 62.4239 48.9415 62.3365 48.701C62.2491 48.4605 62.2054 48.1861 62.2054 47.8778C62.2054 47.4832 62.2678 47.1116 62.3927 46.7632C62.5176 46.4148 62.6886 46.1096 62.9056 45.8475C63.1226 45.5854 63.3786 45.3789 63.6736 45.2278C63.9687 45.0767 64.288 45.0012 64.6314 45.0012C64.8906 45.0012 65.1279 45.0451 65.3433 45.133C65.5587 45.2209 65.7445 45.348 65.9006 45.5145C66.0567 45.681 66.1785 45.8853 66.2659 46.1273C66.3534 46.3694 66.3971 46.643 66.3971 46.9482C66.3971 47.3398 66.3346 47.7098 66.2097 48.0582C66.0849 48.4066 65.9139 48.7118 65.6969 48.9739C65.4799 49.236 65.2231 49.4433 64.9265 49.5959C64.6299 49.7486 64.3114 49.8249 63.971 49.8249ZM67.952 45.0752H68.781L68.425 48.0536C68.4188 48.1152 68.4133 48.1738 68.4086 48.2293C68.4039 48.2848 68.4016 48.3388 68.4016 48.3912C68.4016 48.644 68.4492 48.8321 68.5444 48.9554C68.6397 49.0787 68.7903 49.1404 68.9964 49.1404C69.14 49.1404 69.2876 49.1019 69.439 49.0248C69.5904 48.9477 69.7372 48.8382 69.8792 48.6964C70.0213 48.5546 70.1532 48.3835 70.275 48.1831C70.3968 47.9826 70.5029 47.7591 70.5935 47.5125L70.8885 45.0752H71.7175L71.1461 49.7601H70.734C70.6372 49.7601 70.5622 49.7385 70.5092 49.6954C70.4561 49.6522 70.4295 49.5859 70.4295 49.4965C70.4295 49.4934 70.4311 49.4657 70.4342 49.4133C70.4373 49.3608 70.4413 49.3038 70.4459 49.2421C70.4506 49.1805 70.4553 49.1234 70.46 49.071C70.4647 49.0186 70.467 48.9909 70.467 48.9878L70.4998 48.6132C70.2469 49.0109 69.9643 49.3123 69.6521 49.5173C69.3399 49.7223 69.0183 49.8249 68.6873 49.8249C68.3345 49.8249 68.0605 49.7062 67.8653 49.4688C67.6702 49.2313 67.5726 48.8907 67.5726 48.4467C67.5726 48.385 67.5742 48.3218 67.5773 48.2571C67.5804 48.1923 67.5867 48.1245 67.596 48.0536L67.952 45.0752ZM73.6565 49.7601H72.8415L73.4129 45.0705H73.8297C73.9172 45.0705 73.9859 45.0906 74.0358 45.1307C74.0858 45.1708 74.1108 45.2324 74.1108 45.3157C74.1108 45.328 74.11 45.3457 74.1084 45.3688C74.1068 45.392 74.1053 45.4159 74.1037 45.4405C74.1022 45.4652 74.1006 45.4868 74.099 45.5053C74.0975 45.5238 74.0967 45.5346 74.0967 45.5377L74.0311 46.3886C74.2341 45.957 74.4612 45.624 74.7126 45.3897C74.9639 45.1553 75.2285 45.0382 75.5064 45.0382C75.6376 45.0382 75.7687 45.0659 75.8998 45.1214L75.75 45.9123C75.6032 45.8537 75.4611 45.8244 75.3238 45.8244C75.0209 45.8244 74.7508 45.9701 74.5135 46.2614C74.2762 46.5528 74.078 46.9945 73.9187 47.5865L73.6565 49.7601ZM81.2296 47.272H80.2555L79.9463 49.7601H79.0752L79.8948 43.1327H81.7448C82.1007 43.1327 82.4099 43.1744 82.6721 43.2576C82.9344 43.3409 83.1506 43.4596 83.3208 43.6137C83.491 43.7679 83.6182 43.9529 83.7025 44.1687C83.7868 44.3845 83.8289 44.625 83.8289 44.8902C83.8289 45.2386 83.7712 45.5585 83.6556 45.8498C83.5401 46.1412 83.3723 46.3917 83.1522 46.6014C82.9321 46.811 82.6604 46.9752 82.3373 47.0939C82.0141 47.2126 81.6449 47.272 81.2296 47.272ZM81.6605 43.8126H80.6863L80.3398 46.5875H81.3139C81.5793 46.5875 81.8135 46.5474 82.0164 46.4672C82.2194 46.3871 82.3896 46.2753 82.5269 46.1319C82.6643 45.9886 82.7689 45.8175 82.8407 45.6186C82.9125 45.4197 82.9484 45.2031 82.9484 44.9688C82.9484 44.79 82.9219 44.6296 82.8688 44.4878C82.8158 44.346 82.7361 44.225 82.63 44.1248C82.5238 44.0246 82.3896 43.9475 82.2272 43.8935C82.0648 43.8396 81.8759 43.8126 81.6605 43.8126ZM88.5405 45.2278L87.9738 49.7601H87.5429C87.4336 49.7601 87.3595 49.7324 87.3205 49.6769C87.2814 49.6214 87.2619 49.5535 87.2619 49.4734L87.3462 48.5253C87.2338 48.7226 87.1128 48.9014 86.9833 49.0618C86.8537 49.2221 86.7163 49.3585 86.5711 49.4711C86.4259 49.5836 86.2737 49.6707 86.1145 49.7324C85.9552 49.794 85.7897 49.8249 85.618 49.8249C85.4307 49.8249 85.2605 49.7886 85.1075 49.7162C84.9545 49.6437 84.8242 49.5374 84.7165 49.3971C84.6087 49.2568 84.5252 49.0841 84.4659 48.8791C84.4066 48.6741 84.3769 48.439 84.3769 48.1738C84.3769 47.8963 84.412 47.6258 84.4823 47.3621C84.5525 47.0985 84.6524 46.8496 84.782 46.6152C84.9116 46.3809 85.0669 46.1659 85.248 45.9701C85.4291 45.7743 85.6313 45.6047 85.8545 45.4613C86.0778 45.318 86.3174 45.207 86.5735 45.1284C86.8295 45.0497 87.098 45.0104 87.379 45.0104C87.582 45.0104 87.7794 45.0266 87.9715 45.059C88.1635 45.0914 88.3532 45.1476 88.5405 45.2278ZM85.9318 49.1404C86.0848 49.1404 86.2347 49.0934 86.3814 48.9993C86.5282 48.9053 86.6671 48.775 86.7983 48.6085C86.9294 48.442 87.0519 48.2439 87.1659 48.0142C87.2799 47.7845 87.3806 47.5325 87.468 47.2581L87.6694 45.6486C87.6007 45.6332 87.5328 45.6232 87.4657 45.6186C87.3985 45.614 87.3322 45.6117 87.2666 45.6117C87.0793 45.6117 86.8982 45.6417 86.7233 45.7018C86.5485 45.762 86.3846 45.846 86.2316 45.9539C86.0786 46.0618 85.9396 46.1905 85.8147 46.3401C85.6898 46.4896 85.5829 46.6538 85.4939 46.8326C85.4049 47.0114 85.3355 47.2018 85.2855 47.4038C85.2355 47.6057 85.2106 47.8131 85.2106 48.0258C85.2106 48.7689 85.451 49.1404 85.9318 49.1404ZM90.0954 48.8768C90.0954 48.8583 90.0962 48.8344 90.0978 48.8051C90.0993 48.7758 90.1024 48.7334 90.1071 48.6779C90.1118 48.6224 90.1188 48.55 90.1282 48.4605C90.1376 48.3711 90.1516 48.254 90.1703 48.1091L90.4654 45.7643H89.9362C89.8956 45.7643 89.862 45.7527 89.8355 45.7296C89.8089 45.7065 89.7957 45.6702 89.7957 45.6209C89.7957 45.6117 89.7972 45.5932 89.8004 45.5654C89.8035 45.5377 89.8074 45.5061 89.8121 45.4706C89.8167 45.4351 89.8214 45.3989 89.8261 45.3619C89.8308 45.3249 89.8347 45.2895 89.8378 45.2555L90.5685 45.1584L90.9197 43.7108C90.9322 43.6646 90.9556 43.6268 90.99 43.5975C91.0243 43.5683 91.0665 43.5536 91.1164 43.5536H91.5567L91.3506 45.1677H92.5964L92.5261 45.7643H91.2757L90.99 48.0674C90.9743 48.1938 90.9626 48.2956 90.9548 48.3727C90.947 48.4498 90.9408 48.5114 90.9361 48.5577C90.9314 48.6039 90.9283 48.6363 90.9267 48.6548C90.9252 48.6733 90.9244 48.6872 90.9244 48.6964C90.9244 48.8537 90.9611 48.97 91.0345 49.0456C91.1078 49.1211 91.2085 49.1589 91.3365 49.1589C91.4177 49.1589 91.4895 49.1473 91.552 49.1242C91.6144 49.1011 91.6683 49.0756 91.7136 49.0479C91.7588 49.0201 91.7971 48.9947 91.8283 48.9716C91.8595 48.9485 91.8876 48.9369 91.9126 48.9369C91.9376 48.9369 91.9571 48.9431 91.9711 48.9554C91.9852 48.9677 92 48.9878 92.0156 49.0155L92.1889 49.4086C92.0391 49.5412 91.8665 49.6453 91.6714 49.7208C91.4763 49.7963 91.2803 49.8341 91.0836 49.8341C90.7808 49.8341 90.5419 49.7524 90.3671 49.589C90.1922 49.4256 90.1017 49.1882 90.0954 48.8768ZM94.0436 45.0752H94.8632L94.2918 49.7601H93.4722L94.0436 45.0752ZM95.177 43.6045C95.177 43.6846 95.1606 43.7594 95.1278 43.8288C95.095 43.8982 95.0513 43.9598 94.9967 44.0138C94.942 44.0677 94.8804 44.1101 94.8117 44.141C94.743 44.1718 94.6712 44.1872 94.5962 44.1872C94.5244 44.1872 94.4542 44.1718 94.3855 44.141C94.3168 44.1101 94.2567 44.0677 94.2052 44.0138C94.1536 43.9598 94.1123 43.8982 94.081 43.8288C94.0498 43.7594 94.0342 43.6846 94.0342 43.6045C94.0342 43.5243 94.0498 43.4488 94.081 43.3779C94.1123 43.3069 94.1544 43.2445 94.2075 43.1906C94.2606 43.1366 94.3215 43.0934 94.3902 43.0611C94.4588 43.0287 94.5291 43.0125 94.6009 43.0125C94.6758 43.0125 94.7477 43.0279 94.8164 43.0587C94.885 43.0896 94.9467 43.132 95.0014 43.1859C95.056 43.2399 95.0989 43.3031 95.1301 43.3755C95.1614 43.448 95.177 43.5243 95.177 43.6045ZM99.9026 46.0788C99.9026 46.2823 99.8605 46.4696 99.7761 46.6407C99.6918 46.8118 99.5373 46.966 99.3125 47.1032C99.0877 47.2404 98.7786 47.3598 98.3852 47.4616C97.9917 47.5633 97.4859 47.645 96.8677 47.7067C96.8646 47.7406 96.863 47.7738 96.863 47.8061C96.863 47.8385 96.863 47.8716 96.863 47.9056C96.863 48.3187 96.9544 48.634 97.137 48.8513C97.3197 49.0687 97.5952 49.1774 97.9636 49.1774C98.1135 49.1774 98.247 49.162 98.3641 49.1311C98.4812 49.1003 98.5858 49.0625 98.6779 49.0178C98.77 48.9731 98.8512 48.9238 98.9214 48.8698C98.9917 48.8159 99.0564 48.7666 99.1158 48.7218C99.1751 48.6771 99.2297 48.6394 99.2797 48.6085C99.3297 48.5777 99.3796 48.5623 99.4296 48.5623C99.4858 48.5623 99.5373 48.5885 99.5841 48.6409L99.7902 48.8953C99.631 49.0587 99.4756 49.1982 99.3242 49.3138C99.1728 49.4294 99.0174 49.5258 98.8582 49.6029C98.6989 49.68 98.5327 49.7362 98.3594 49.7717C98.1861 49.8071 97.9995 49.8249 97.7997 49.8249C97.5281 49.8249 97.2845 49.7802 97.0691 49.6907C96.8537 49.6013 96.671 49.4741 96.5211 49.3092C96.3713 49.1442 96.2557 48.9446 96.1746 48.7103C96.0934 48.476 96.0528 48.2139 96.0528 47.9241C96.0528 47.6836 96.0785 47.4439 96.1301 47.2049C96.1816 46.966 96.2565 46.7386 96.3549 46.5227C96.4532 46.3069 96.5734 46.1065 96.7155 45.9215C96.8576 45.7365 97.0199 45.577 97.2026 45.4428C97.3852 45.3087 97.5866 45.2031 97.8067 45.126C98.0269 45.049 98.2634 45.0104 98.5163 45.0104C98.7567 45.0104 98.9643 45.0443 99.1392 45.1122C99.314 45.18 99.4577 45.2663 99.5701 45.3712C99.6825 45.476 99.766 45.5916 99.8206 45.718C99.8753 45.8444 99.9026 45.9647 99.9026 46.0788ZM98.4695 45.6024C98.2728 45.6024 98.0917 45.6425 97.9262 45.7226C97.7607 45.8028 97.6139 45.913 97.4859 46.0533C97.3579 46.1936 97.2486 46.3586 97.1581 46.5482C97.0675 46.7378 96.9973 46.9421 96.9473 47.161C97.4282 47.1024 97.8138 47.0353 98.1041 46.9598C98.3945 46.8842 98.6178 46.8025 98.7739 46.7147C98.93 46.6268 99.033 46.532 99.083 46.4302C99.1329 46.3285 99.1579 46.2221 99.1579 46.1111C99.1579 46.0556 99.1454 45.9978 99.1205 45.9377C99.0955 45.8776 99.0557 45.8229 99.001 45.7735C98.9464 45.7242 98.8754 45.6833 98.7879 45.651C98.7005 45.6186 98.5943 45.6024 98.4695 45.6024ZM101.729 49.7601H100.895L101.462 45.0705H101.879C102.066 45.0705 102.16 45.163 102.16 45.348L102.09 46.2545C102.343 45.8414 102.628 45.5299 102.945 45.3203C103.261 45.1106 103.59 45.0058 103.93 45.0058C104.283 45.0058 104.557 45.123 104.752 45.3573C104.947 45.5916 105.045 45.9338 105.045 46.384C105.045 46.4457 105.043 46.5089 105.04 46.5736C105.037 46.6384 105.031 46.7062 105.022 46.7771L104.666 49.7601H103.832L104.188 46.7771C104.194 46.7154 104.2 46.6561 104.204 46.5991C104.209 46.542 104.211 46.4873 104.211 46.4349C104.211 46.182 104.164 45.9947 104.069 45.873C103.973 45.7512 103.824 45.6903 103.621 45.6903C103.471 45.6903 103.319 45.7304 103.165 45.8105C103.01 45.8907 102.861 46.004 102.717 46.1504C102.574 46.2969 102.44 46.4742 102.317 46.6823C102.194 46.8904 102.088 47.1224 102.001 47.3783L101.729 49.7601ZM106.703 48.8768C106.703 48.8583 106.704 48.8344 106.705 48.8051C106.707 48.7758 106.71 48.7334 106.715 48.6779C106.719 48.6224 106.726 48.55 106.736 48.4605C106.745 48.3711 106.759 48.254 106.778 48.1091L107.073 45.7643H106.544C106.503 45.7643 106.47 45.7527 106.443 45.7296C106.417 45.7065 106.403 45.6702 106.403 45.6209C106.403 45.6117 106.405 45.5932 106.408 45.5654C106.411 45.5377 106.415 45.5061 106.42 45.4706C106.424 45.4351 106.429 45.3989 106.434 45.3619C106.438 45.3249 106.442 45.2895 106.445 45.2555L107.176 45.1584L107.527 43.7108C107.54 43.6646 107.563 43.6268 107.598 43.5975C107.632 43.5683 107.674 43.5536 107.724 43.5536H108.164L107.958 45.1677H109.204L109.134 45.7643H107.883L107.598 48.0674C107.582 48.1938 107.57 48.2956 107.562 48.3727C107.555 48.4498 107.548 48.5114 107.544 48.5577C107.539 48.6039 107.536 48.6363 107.534 48.6548C107.533 48.6733 107.532 48.6872 107.532 48.6964C107.532 48.8537 107.569 48.97 107.642 49.0456C107.715 49.1211 107.816 49.1589 107.944 49.1589C108.025 49.1589 108.097 49.1473 108.16 49.1242C108.222 49.1011 108.276 49.0756 108.321 49.0479C108.366 49.0201 108.405 48.9947 108.436 48.9716C108.467 48.9485 108.495 48.9369 108.52 48.9369C108.545 48.9369 108.565 48.9431 108.579 48.9554C108.593 48.9677 108.608 48.9878 108.623 49.0155L108.797 49.4086C108.647 49.5412 108.474 49.6453 108.279 49.7208C108.084 49.7963 107.888 49.8341 107.691 49.8341C107.388 49.8341 107.149 49.7524 106.975 49.589C106.8 49.4256 106.709 49.1882 106.703 48.8768ZM110.829 43.142H111.522L111.354 44.4786L111.194 45.1954C111.173 45.291 111.137 45.365 111.089 45.4174C111.041 45.4698 110.971 45.496 110.881 45.496C110.799 45.496 110.742 45.4698 110.707 45.4174C110.673 45.365 110.656 45.291 110.656 45.1954V44.4786L110.829 43.142ZM115.695 45.5284L115.484 45.8244C115.46 45.8614 115.435 45.8884 115.41 45.9053C115.385 45.9223 115.353 45.9308 115.316 45.9308C115.272 45.9308 115.225 45.9138 115.173 45.8799C115.122 45.846 115.059 45.8082 114.986 45.7666C114.912 45.725 114.823 45.6864 114.716 45.651C114.61 45.6155 114.482 45.5978 114.332 45.5978C114.192 45.5978 114.064 45.617 113.948 45.6556C113.833 45.6941 113.733 45.7473 113.649 45.8151C113.564 45.883 113.499 45.9624 113.454 46.0533C113.409 46.1443 113.386 46.2406 113.386 46.3424C113.386 46.4873 113.435 46.6029 113.531 46.6892C113.628 46.7756 113.75 46.8503 113.897 46.9135C114.044 46.9767 114.202 47.0376 114.372 47.0962C114.542 47.1548 114.701 47.2288 114.848 47.3182C114.994 47.4076 115.116 47.5217 115.213 47.6604C115.31 47.7992 115.358 47.9796 115.358 48.2016C115.358 48.4174 115.315 48.624 115.229 48.8213C115.143 49.0186 115.02 49.192 114.859 49.3416C114.698 49.4911 114.505 49.6106 114.278 49.7C114.052 49.7894 113.798 49.8341 113.517 49.8341C113.215 49.8341 112.947 49.7809 112.714 49.6746C112.482 49.5682 112.292 49.4318 112.145 49.2653L112.351 48.9508C112.376 48.9107 112.406 48.8799 112.44 48.8583C112.475 48.8367 112.518 48.8259 112.571 48.8259C112.621 48.8259 112.671 48.8475 112.721 48.8907C112.771 48.9338 112.834 48.9824 112.909 49.0363C112.984 49.0903 113.078 49.1388 113.192 49.182C113.306 49.2252 113.45 49.2468 113.625 49.2468C113.778 49.2468 113.916 49.2236 114.04 49.1774C114.163 49.1311 114.268 49.0695 114.353 48.9924C114.439 48.9153 114.505 48.8251 114.55 48.7218C114.595 48.6186 114.618 48.5083 114.618 48.3912C114.618 48.2339 114.57 48.1091 114.473 48.0166C114.376 47.9241 114.254 47.847 114.108 47.7853C113.961 47.7237 113.803 47.6658 113.635 47.6119C113.466 47.5579 113.308 47.4886 113.161 47.4038C113.015 47.319 112.893 47.2088 112.796 47.0731C112.699 46.9374 112.651 46.7571 112.651 46.532C112.651 46.3347 112.691 46.1443 112.77 45.9608C112.85 45.7774 112.965 45.6147 113.115 45.4729C113.265 45.3311 113.446 45.2178 113.66 45.133C113.874 45.0482 114.115 45.0058 114.384 45.0058C114.668 45.0058 114.919 45.0528 115.136 45.1469C115.353 45.2409 115.539 45.3681 115.695 45.5284ZM119.152 43.1327H123.999L123.905 43.8588H121.924L121.194 49.7601H120.323L121.053 43.8588H119.063L119.152 43.1327ZM125.062 45.0752H125.882L125.31 49.7601H124.491L125.062 45.0752ZM126.196 43.6045C126.196 43.6846 126.179 43.7594 126.146 43.8288C126.114 43.8982 126.07 43.9598 126.015 44.0138C125.961 44.0677 125.899 44.1101 125.83 44.141C125.762 44.1718 125.69 44.1872 125.615 44.1872C125.543 44.1872 125.473 44.1718 125.404 44.141C125.335 44.1101 125.275 44.0677 125.224 44.0138C125.172 43.9598 125.131 43.8982 125.1 43.8288C125.068 43.7594 125.053 43.6846 125.053 43.6045C125.053 43.5243 125.068 43.4488 125.1 43.3779C125.131 43.3069 125.173 43.2445 125.226 43.1906C125.279 43.1366 125.34 43.0934 125.409 43.0611C125.477 43.0287 125.548 43.0125 125.62 43.0125C125.694 43.0125 125.766 43.0279 125.835 43.0587C125.904 43.0896 125.965 43.132 126.02 43.1859C126.075 43.2399 126.118 43.3031 126.149 43.3755C126.18 43.448 126.196 43.5243 126.196 43.6045ZM127.943 49.7601H127.128L127.699 45.0705H128.116C128.303 45.0705 128.397 45.163 128.397 45.348L128.331 46.1851C128.565 45.7966 128.821 45.503 129.099 45.3041C129.377 45.1052 129.671 45.0058 129.98 45.0058C130.301 45.0058 130.539 45.1145 130.692 45.3318C130.845 45.5492 130.921 45.8599 130.921 46.2638C131.158 45.8352 131.425 45.5184 131.72 45.3134C132.015 45.1083 132.325 45.0058 132.649 45.0058C132.999 45.0058 133.261 45.1183 133.434 45.3434C133.607 45.5685 133.694 45.8922 133.694 46.3146C133.694 46.3855 133.691 46.4595 133.684 46.5366C133.678 46.6137 133.67 46.6939 133.661 46.7771L133.305 49.7601H132.485L132.841 46.7771C132.86 46.626 132.87 46.4888 132.87 46.3655C132.87 46.1343 132.83 45.9639 132.752 45.8545C132.674 45.745 132.543 45.6903 132.359 45.6903C132.225 45.6903 132.09 45.7234 131.956 45.7897C131.822 45.856 131.692 45.9531 131.568 46.0811C131.443 46.209 131.326 46.3678 131.219 46.5574C131.111 46.747 131.015 46.9652 130.931 47.2118L130.626 49.7601H129.802L130.162 46.7771C130.172 46.6939 130.18 46.6152 130.186 46.5412C130.192 46.4672 130.195 46.3979 130.195 46.3331C130.195 46.1142 130.159 45.9523 130.085 45.8475C130.012 45.7427 129.883 45.6903 129.699 45.6903C129.549 45.6903 129.405 45.7273 129.266 45.8013C129.127 45.8753 128.996 45.9824 128.872 46.1227C128.749 46.263 128.634 46.4341 128.528 46.636C128.422 46.838 128.325 47.0654 128.238 47.3182L127.943 49.7601ZM138.729 46.0788C138.729 46.2823 138.686 46.4696 138.602 46.6407C138.518 46.8118 138.363 46.966 138.138 47.1032C137.914 47.2404 137.604 47.3598 137.211 47.4616C136.818 47.5633 136.312 47.645 135.694 47.7067C135.691 47.7406 135.689 47.7738 135.689 47.8061C135.689 47.8385 135.689 47.8716 135.689 47.9056C135.689 48.3187 135.78 48.634 135.963 48.8513C136.146 49.0687 136.421 49.1774 136.79 49.1774C136.939 49.1774 137.073 49.162 137.19 49.1311C137.307 49.1003 137.412 49.0625 137.504 49.0178C137.596 48.9731 137.677 48.9238 137.747 48.8698C137.818 48.8159 137.882 48.7666 137.942 48.7218C138.001 48.6771 138.056 48.6394 138.106 48.6085C138.156 48.5777 138.206 48.5623 138.255 48.5623C138.312 48.5623 138.363 48.5885 138.41 48.6409L138.616 48.8953C138.457 49.0587 138.302 49.1982 138.15 49.3138C137.999 49.4294 137.843 49.5258 137.684 49.6029C137.525 49.68 137.359 49.7362 137.185 49.7717C137.012 49.8071 136.825 49.8249 136.626 49.8249C136.354 49.8249 136.11 49.7802 135.895 49.6907C135.68 49.6013 135.497 49.4741 135.347 49.3092C135.197 49.1442 135.082 48.9446 135 48.7103C134.919 48.476 134.879 48.2139 134.879 47.9241C134.879 47.6836 134.904 47.4439 134.956 47.2049C135.008 46.966 135.082 46.7386 135.181 46.5227C135.279 46.3069 135.399 46.1065 135.541 45.9215C135.683 45.7365 135.846 45.577 136.029 45.4428C136.211 45.3087 136.413 45.2031 136.633 45.126C136.853 45.049 137.089 45.0104 137.342 45.0104C137.583 45.0104 137.79 45.0443 137.965 45.1122C138.14 45.18 138.284 45.2663 138.396 45.3712C138.508 45.476 138.592 45.5916 138.647 45.718C138.701 45.8444 138.729 45.9647 138.729 46.0788ZM137.295 45.6024C137.099 45.6024 136.918 45.6425 136.752 45.7226C136.587 45.8028 136.44 45.913 136.312 46.0533C136.184 46.1936 136.075 46.3586 135.984 46.5482C135.893 46.7378 135.823 46.9421 135.773 47.161C136.254 47.1024 136.64 47.0353 136.93 46.9598C137.22 46.8842 137.444 46.8025 137.6 46.7147C137.756 46.6268 137.859 46.532 137.909 46.4302C137.959 46.3285 137.984 46.2221 137.984 46.1111C137.984 46.0556 137.971 45.9978 137.946 45.9377C137.921 45.8776 137.882 45.8229 137.827 45.7735C137.772 45.7242 137.701 45.6833 137.614 45.651C137.526 45.6186 137.42 45.6024 137.295 45.6024ZM142.41 48.8768C142.41 48.8583 142.411 48.8344 142.412 48.8051C142.414 48.7758 142.417 48.7334 142.421 48.6779C142.426 48.6224 142.433 48.55 142.443 48.4605C142.452 48.3711 142.466 48.254 142.485 48.1091L142.78 45.7643H142.25C142.21 45.7643 142.176 45.7527 142.15 45.7296C142.123 45.7065 142.11 45.6702 142.11 45.6209C142.11 45.6117 142.112 45.5932 142.115 45.5654C142.118 45.5377 142.122 45.5061 142.126 45.4706C142.131 45.4351 142.136 45.3989 142.14 45.3619C142.145 45.3249 142.149 45.2895 142.152 45.2555L142.883 45.1584L143.234 43.7108C143.246 43.6646 143.27 43.6268 143.304 43.5975C143.339 43.5683 143.381 43.5536 143.431 43.5536H143.871L143.665 45.1677H144.911L144.84 45.7643H143.59L143.304 48.0674C143.289 48.1938 143.277 48.2956 143.269 48.3727C143.261 48.4498 143.255 48.5114 143.25 48.5577C143.246 48.6039 143.243 48.6363 143.241 48.6548C143.239 48.6733 143.239 48.6872 143.239 48.6964C143.239 48.8537 143.275 48.97 143.349 49.0456C143.422 49.1211 143.523 49.1589 143.651 49.1589C143.732 49.1589 143.804 49.1473 143.866 49.1242C143.929 49.1011 143.983 49.0756 144.028 49.0479C144.073 49.0201 144.111 48.9947 144.143 48.9716C144.174 48.9485 144.202 48.9369 144.227 48.9369C144.252 48.9369 144.271 48.9431 144.285 48.9554C144.3 48.9677 144.314 48.9878 144.33 49.0155L144.503 49.4086C144.353 49.5412 144.181 49.6453 143.986 49.7208C143.791 49.7963 143.595 49.8341 143.398 49.8341C143.095 49.8341 142.856 49.7524 142.681 49.589C142.507 49.4256 142.416 49.1882 142.41 48.8768ZM147.44 49.182C147.668 49.182 147.875 49.1204 148.063 48.997C148.25 48.8737 148.409 48.7095 148.54 48.5045C148.672 48.2994 148.773 48.0628 148.845 47.7946C148.917 47.5263 148.953 47.2458 148.953 46.9529C148.953 46.5212 148.867 46.1959 148.695 45.977C148.523 45.7581 148.275 45.6486 147.95 45.6486C147.719 45.6486 147.511 45.7095 147.325 45.8313C147.139 45.9531 146.981 46.1165 146.85 46.3216C146.719 46.5266 146.617 46.7632 146.545 47.0315C146.473 47.2997 146.438 47.5803 146.438 47.8732C146.438 48.3048 146.523 48.6309 146.693 48.8513C146.863 49.0718 147.112 49.182 147.44 49.182ZM147.365 49.8249C147.106 49.8249 146.868 49.7809 146.653 49.6931C146.438 49.6052 146.252 49.478 146.096 49.3115C145.939 49.145 145.818 48.9415 145.73 48.701C145.643 48.4605 145.599 48.1861 145.599 47.8778C145.599 47.4832 145.662 47.1116 145.786 46.7632C145.911 46.4148 146.082 46.1096 146.299 45.8475C146.516 45.5854 146.772 45.3789 147.067 45.2278C147.363 45.0767 147.682 45.0012 148.025 45.0012C148.284 45.0012 148.522 45.0451 148.737 45.133C148.953 45.2209 149.138 45.348 149.294 45.5145C149.451 45.681 149.572 45.8853 149.66 46.1273C149.747 46.3694 149.791 46.643 149.791 46.9482C149.791 47.3398 149.728 47.7098 149.604 48.0582C149.479 48.4066 149.308 48.7118 149.091 48.9739C148.874 49.236 148.617 49.4433 148.32 49.5959C148.024 49.7486 147.705 49.8249 147.365 49.8249ZM159.073 45.9816C159.073 46.5459 158.985 47.06 158.809 47.524C158.632 47.988 158.389 48.3858 158.078 48.7172C157.768 49.0487 157.398 49.3053 156.968 49.4873C156.539 49.6692 156.071 49.7601 155.566 49.7601H153.247L154.076 43.1327H156.39C156.802 43.1327 157.174 43.2021 157.507 43.3409C157.839 43.4796 158.121 43.6746 158.352 43.9259C158.583 44.1772 158.761 44.4778 158.886 44.8277C159.011 45.1777 159.073 45.5623 159.073 45.9816ZM158.174 46.0001C158.174 45.6671 158.131 45.3665 158.045 45.0983C157.96 44.8301 157.836 44.6027 157.675 44.4161C157.515 44.2296 157.319 44.0862 157.088 43.986C156.857 43.8858 156.596 43.8357 156.306 43.8357H154.872L154.217 49.0618H155.65C156.025 49.0618 156.366 48.9916 156.676 48.8513C156.985 48.7111 157.25 48.5091 157.472 48.2455C157.693 47.9819 157.866 47.6612 157.989 47.2835C158.113 46.9058 158.174 46.478 158.174 46.0001ZM163.874 46.0788C163.874 46.2823 163.832 46.4696 163.748 46.6407C163.663 46.8118 163.509 46.966 163.284 47.1032C163.059 47.2404 162.75 47.3598 162.357 47.4616C161.963 47.5633 161.457 47.645 160.839 47.7067C160.836 47.7406 160.834 47.7738 160.834 47.8061C160.834 47.8385 160.834 47.8716 160.834 47.9056C160.834 48.3187 160.926 48.634 161.108 48.8513C161.291 49.0687 161.567 49.1774 161.935 49.1774C162.085 49.1774 162.218 49.162 162.336 49.1311C162.453 49.1003 162.557 49.0625 162.649 49.0178C162.741 48.9731 162.823 48.9238 162.893 48.8698C162.963 48.8159 163.028 48.7666 163.087 48.7218C163.147 48.6771 163.201 48.6394 163.251 48.6085C163.301 48.5777 163.351 48.5623 163.401 48.5623C163.457 48.5623 163.509 48.5885 163.556 48.6409L163.762 48.8953C163.602 49.0587 163.447 49.1982 163.296 49.3138C163.144 49.4294 162.989 49.5258 162.83 49.6029C162.67 49.68 162.504 49.7362 162.331 49.7717C162.158 49.8071 161.971 49.8249 161.771 49.8249C161.5 49.8249 161.256 49.7802 161.041 49.6907C160.825 49.6013 160.642 49.4741 160.493 49.3092C160.343 49.1442 160.227 48.9446 160.146 48.7103C160.065 48.476 160.024 48.2139 160.024 47.9241C160.024 47.6836 160.05 47.4439 160.102 47.2049C160.153 46.966 160.228 46.7386 160.326 46.5227C160.425 46.3069 160.545 46.1065 160.687 45.9215C160.829 45.7365 160.991 45.577 161.174 45.4428C161.357 45.3087 161.558 45.2031 161.778 45.126C161.998 45.049 162.235 45.0104 162.488 45.0104C162.728 45.0104 162.936 45.0443 163.111 45.1122C163.285 45.18 163.429 45.2663 163.542 45.3712C163.654 45.476 163.737 45.5916 163.792 45.718C163.847 45.8444 163.874 45.9647 163.874 46.0788ZM162.441 45.6024C162.244 45.6024 162.063 45.6425 161.898 45.7226C161.732 45.8028 161.585 45.913 161.457 46.0533C161.329 46.1936 161.22 46.3586 161.13 46.5482C161.039 46.7378 160.969 46.9421 160.919 47.161C161.4 47.1024 161.785 47.0353 162.076 46.9598C162.366 46.8842 162.589 46.8025 162.745 46.7147C162.901 46.6268 163.004 46.532 163.054 46.4302C163.104 46.3285 163.129 46.2221 163.129 46.1111C163.129 46.0556 163.117 45.9978 163.092 45.9377C163.067 45.8776 163.027 45.8229 162.972 45.7735C162.918 45.7242 162.847 45.6833 162.759 45.651C162.672 45.6186 162.566 45.6024 162.441 45.6024ZM165.766 49.7601H164.947L165.785 42.9478H166.605L165.766 49.7601ZM168.244 45.0752H169.063L168.492 49.7601H167.672L168.244 45.0752ZM169.377 43.6045C169.377 43.6846 169.361 43.7594 169.328 43.8288C169.295 43.8982 169.251 43.9598 169.197 44.0138C169.142 44.0677 169.081 44.1101 169.012 44.141C168.943 44.1718 168.871 44.1872 168.796 44.1872C168.725 44.1872 168.654 44.1718 168.586 44.141C168.517 44.1101 168.457 44.0677 168.405 44.0138C168.354 43.9598 168.312 43.8982 168.281 43.8288C168.25 43.7594 168.234 43.6846 168.234 43.6045C168.234 43.5243 168.25 43.4488 168.281 43.3779C168.312 43.3069 168.355 43.2445 168.408 43.1906C168.461 43.1366 168.522 43.0934 168.59 43.0611C168.659 43.0287 168.729 43.0125 168.801 43.0125C168.876 43.0125 168.948 43.0279 169.016 43.0587C169.085 43.0896 169.147 43.132 169.201 43.1859C169.256 43.2399 169.299 43.3031 169.33 43.3755C169.362 43.448 169.377 43.5243 169.377 43.6045ZM171.55 49.7601L170.328 45.0752H171.002C171.065 45.0752 171.115 45.0921 171.152 45.126C171.19 45.16 171.213 45.2 171.222 45.2463L171.93 48.2617C171.955 48.3758 171.973 48.4898 171.983 48.6039C171.994 48.718 172.003 48.8305 172.009 48.9415C172.044 48.8305 172.079 48.7188 172.117 48.6062C172.154 48.4937 172.201 48.3788 172.257 48.2617L173.728 45.2463C173.753 45.197 173.787 45.1561 173.831 45.1237C173.875 45.0914 173.923 45.0752 173.976 45.0752H174.627L172.248 49.7601H171.55ZM178.908 46.0788C178.908 46.2823 178.866 46.4696 178.782 46.6407C178.697 46.8118 178.543 46.966 178.318 47.1032C178.093 47.2404 177.784 47.3598 177.391 47.4616C176.997 47.5633 176.491 47.645 175.873 47.7067C175.87 47.7406 175.868 47.7738 175.868 47.8061C175.868 47.8385 175.868 47.8716 175.868 47.9056C175.868 48.3187 175.96 48.634 176.142 48.8513C176.325 49.0687 176.601 49.1774 176.969 49.1774C177.119 49.1774 177.252 49.162 177.369 49.1311C177.487 49.1003 177.591 49.0625 177.683 49.0178C177.775 48.9731 177.857 48.9238 177.927 48.8698C177.997 48.8159 178.062 48.7666 178.121 48.7218C178.18 48.6771 178.235 48.6394 178.285 48.6085C178.335 48.5777 178.385 48.5623 178.435 48.5623C178.491 48.5623 178.543 48.5885 178.59 48.6409L178.796 48.8953C178.636 49.0587 178.481 49.1982 178.33 49.3138C178.178 49.4294 178.023 49.5258 177.864 49.6029C177.704 49.68 177.538 49.7362 177.365 49.7717C177.191 49.8071 177.005 49.8249 176.805 49.8249C176.533 49.8249 176.29 49.7802 176.074 49.6907C175.859 49.6013 175.676 49.4741 175.527 49.3092C175.377 49.1442 175.261 48.9446 175.18 48.7103C175.099 48.476 175.058 48.2139 175.058 47.9241C175.058 47.6836 175.084 47.4439 175.135 47.2049C175.187 46.966 175.262 46.7386 175.36 46.5227C175.459 46.3069 175.579 46.1065 175.721 45.9215C175.863 45.7365 176.025 45.577 176.208 45.4428C176.391 45.3087 176.592 45.2031 176.812 45.126C177.032 45.049 177.269 45.0104 177.522 45.0104C177.762 45.0104 177.97 45.0443 178.145 45.1122C178.319 45.18 178.463 45.2663 178.575 45.3712C178.688 45.476 178.771 45.5916 178.826 45.718C178.881 45.8444 178.908 45.9647 178.908 46.0788ZM177.475 45.6024C177.278 45.6024 177.097 45.6425 176.932 45.7226C176.766 45.8028 176.619 45.913 176.491 46.0533C176.363 46.1936 176.254 46.3586 176.163 46.5482C176.073 46.7378 176.003 46.9421 175.953 47.161C176.434 47.1024 176.819 47.0353 177.11 46.9598C177.4 46.8842 177.623 46.8025 177.779 46.7147C177.935 46.6268 178.038 46.532 178.088 46.4302C178.138 46.3285 178.163 46.2221 178.163 46.1111C178.163 46.0556 178.151 45.9978 178.126 45.9377C178.101 45.8776 178.061 45.8229 178.006 45.7735C177.952 45.7242 177.881 45.6833 177.793 45.651C177.706 45.6186 177.6 45.6024 177.475 45.6024ZM180.716 49.7601H179.901L180.472 45.0705H180.889C180.977 45.0705 181.045 45.0906 181.095 45.1307C181.145 45.1708 181.17 45.2324 181.17 45.3157C181.17 45.328 181.169 45.3457 181.168 45.3688C181.166 45.392 181.165 45.4159 181.163 45.4405C181.161 45.4652 181.16 45.4868 181.158 45.5053C181.157 45.5238 181.156 45.5346 181.156 45.5377L181.09 46.3886C181.293 45.957 181.521 45.624 181.772 45.3897C182.023 45.1553 182.288 45.0382 182.566 45.0382C182.697 45.0382 182.828 45.0659 182.959 45.1214L182.809 45.9123C182.663 45.8537 182.52 45.8244 182.383 45.8244C182.08 45.8244 181.81 45.9701 181.573 46.2614C181.336 46.5528 181.137 46.9945 180.978 47.5865L180.716 49.7601ZM188.008 45.0752L184.804 51.1568C184.739 51.2832 184.642 51.3464 184.514 51.3464H183.905L184.931 49.4826L183.704 45.0752H184.392C184.458 45.0752 184.507 45.0914 184.54 45.1237C184.573 45.1561 184.595 45.197 184.608 45.2463L185.371 48.1969C185.387 48.2617 185.399 48.3264 185.409 48.3912C185.418 48.4559 185.426 48.5207 185.432 48.5854C185.46 48.5207 185.487 48.4551 185.514 48.3889C185.541 48.3226 185.571 48.2571 185.605 48.1923L187.104 45.237C187.129 45.1877 187.164 45.1484 187.209 45.1191C187.255 45.0898 187.301 45.0752 187.348 45.0752H188.008Z" fill="#101010"/>
</g>
<g clip-path="url(#clip3_2475:30725)">
<path d="M2.64062 33.1396V2.0542H9.40125C12.1469 2.0542 14.1156 2.7258 15.3071 4.069C16.4986 5.41219 17.0944 7.32465 17.0944 9.80636C17.0944 11.495 16.7835 12.9405 16.1619 14.143C15.5402 15.3455 14.517 16.0874 13.0924 16.3688C14.802 16.8294 16.0194 17.7632 16.7447 19.1704C17.47 20.5775 17.8326 22.2405 17.8326 24.1594C17.8326 26.9481 17.2822 29.142 16.1813 30.741C15.0804 32.3401 13.1572 33.1396 10.4115 33.1396H2.64062ZM5.59354 15.4478H9.8675C11.5512 15.4478 12.7298 14.9681 13.4032 14.0086C14.0767 13.0492 14.4134 11.6485 14.4134 9.80636C14.4134 8.50154 14.2386 7.45257 13.8889 6.65945C13.5392 5.86632 12.9305 5.27787 12.0628 4.8941C11.195 4.51033 9.97111 4.31845 8.39104 4.31845H5.59354V15.4478ZM5.59354 30.9521H9.82865C11.1756 30.9521 12.2182 30.7155 12.9564 30.2421C13.6946 29.7688 14.2127 29.0461 14.5106 28.0738C14.8085 27.1016 14.9574 25.7968 14.9574 24.1594C14.9574 19.8611 13.2737 17.712 9.90635 17.712H5.59354V30.9521ZM24.1658 33.1396V2.0542H27.1187V33.1396H24.1658ZM34.6565 33.1396V2.0542H41.7668C44.5902 2.0542 46.5976 2.7258 47.7892 4.069C48.9807 5.41219 49.5765 7.37582 49.5765 9.95987C49.5765 11.9299 49.2527 13.5545 48.6051 14.8338C47.9575 16.113 46.8308 16.9189 45.2248 17.2515L50.0427 33.1396H47.1675L42.5438 17.8655H37.6094V33.1396H34.6565ZM37.6094 15.7164H41.6114C43.5023 15.7164 44.8233 15.2559 45.5745 14.3349C46.3257 13.4138 46.7012 11.9555 46.7012 9.95987C46.7012 7.93868 46.3451 6.48035 45.6328 5.58489C44.9204 4.68942 43.6059 4.24169 41.6891 4.24169H37.6094V15.7164ZM59.9894 33.1396V4.31845H54.0447V2.0542H68.7316V4.31845H62.9423V33.1396H59.9894ZM74.0934 33.1396V2.0542H77.0852V15.8316H86.993V2.0542H89.9459V33.1396H86.993V18.019H77.0852V33.1396H74.0934Z" fill="#101010"/>
</g>
<g clip-path="url(#clip4_2475:30725)">
<path d="M98.8398 32.8011L99.4113 2.31788H103.64L109.089 27.0432L114.575 2.31788H118.766L119.338 32.8011H115.871L115.528 10.6726L110.308 32.8011H107.87L102.688 10.6726L102.345 32.8011H98.8398ZM133.854 33.1398C130.831 33.1398 128.666 32.2931 127.358 30.5996C126.05 28.9061 125.396 26.4536 125.396 23.2422V11.6887C125.396 8.52743 126.056 6.13142 127.377 4.50063C128.698 2.86984 130.857 2.05444 133.854 2.05444C136.851 2.05444 139.004 2.87611 140.312 4.51945C141.62 6.16279 142.274 8.55252 142.274 11.6887V23.2798C142.274 26.4411 141.613 28.8747 140.293 30.5808C138.972 32.2868 136.826 33.1398 133.854 33.1398ZM133.854 29.7905C135.454 29.7905 136.533 29.3263 137.092 28.398C137.651 27.4697 137.93 26.0647 137.93 24.183V10.8231C137.93 8.96649 137.651 7.59286 137.092 6.7022C136.533 5.81154 135.454 5.36621 133.854 5.36621C132.228 5.36621 131.136 5.81154 130.577 6.7022C130.018 7.59286 129.739 8.96649 129.739 10.8231V24.183C129.739 26.0647 130.018 27.4697 130.577 28.398C131.136 29.3263 132.228 29.7905 133.854 29.7905ZM148.408 32.8011V2.31788H155.114C158.441 2.31788 160.797 3.07055 162.181 4.5759C163.565 6.08125 164.258 8.42708 164.258 11.6134V22.8282C164.258 26.1902 163.578 28.6928 162.219 30.3361C160.86 31.9795 158.606 32.8011 155.456 32.8011H148.408ZM152.713 29.7528H155.152C156.65 29.7528 157.736 29.4643 158.409 28.8872C159.082 28.3102 159.501 27.5262 159.667 26.5351C159.832 25.5441 159.914 24.045 159.914 22.0379V12.1403C159.914 10.4091 159.806 9.08567 159.59 8.16991C159.374 7.25416 158.924 6.57676 158.238 6.1377C157.552 5.69864 156.485 5.47911 155.037 5.47911H152.713V29.7528ZM170.392 32.8011V2.31788H182.355V5.47911H174.697V15.5649H180.907V18.5756H174.697V29.7528H182.431V32.8011H170.392ZM187.803 32.8011V2.31788H192.109V29.7528H199.995V32.8011H187.803Z" fill="#101010"/>
</g>
</g>
<defs>
<clipPath id="clip0_2475:30725">
<rect width="200" height="51.462" fill="white"/>
</clipPath>
<clipPath id="clip1_2475:30725">
<rect width="92.5504" height="35.2301" fill="white"/>
</clipPath>
<clipPath id="clip2_2475:30725">
<rect width="176.492" height="8.4958" fill="white" transform="translate(11.7598 42.9478)"/>
</clipPath>
<clipPath id="clip3_2475:30725">
<rect width="87.3053" height="31.0854" fill="white" transform="translate(2.64062 2.05444)"/>
</clipPath>
<clipPath id="clip4_2475:30725">
<rect width="101.156" height="31.0854" fill="white" transform="translate(98.8398 2.05444)"/>
</clipPath>
</defs>
</svg>
