<svg width="146" height="28" viewBox="0 0 146 28" fill="none" xmlns="http://www.w3.org/2000/svg">
<path d="M13.1845 27.2338C-10.6137 12.327 24.426 9.52588 18.5883 2.74463C31.9745 11.5022 8.99697 13.4674 12.1394 19.3533C14.0256 14.9496 25.8584 13.9789 25.1954 7.42505C36.5315 17.4417 9.60348 21.4283 13.1845 27.2338Z" fill="white"/>
<path d="M14.9977 0C22.8532 7.0797 1.69925 9.43733 2.23712 17.0793C-6.90575 8.13653 14.9254 3.73894 14.9977 0Z" fill="white"/>
<path d="M49.776 4.344H37.736V24H49.776V20.164H42.524V15.852H48.936V12.156H42.524V8.18H49.776V4.344ZM51.9324 16.16C51.9324 21.088 54.9844 24.224 58.8204 24.224C61.1164 24.224 62.7684 23.188 63.6364 21.76V24H68.4244V3.28H63.6364V10.532C62.6844 9.104 60.8924 8.152 58.8204 8.152C54.9844 8.152 51.9324 11.232 51.9324 16.16ZM63.6364 16.188C63.6364 18.68 62.0404 20.052 60.2204 20.052C58.4284 20.052 56.8044 18.652 56.8044 16.16C56.8044 13.668 58.4284 12.324 60.2204 12.324C62.0404 12.324 63.6364 13.696 63.6364 16.188ZM87.3163 8.376H82.5283V16.86C82.5283 18.988 81.3523 20.164 79.5043 20.164C77.7123 20.164 76.5083 18.988 76.5083 16.86V8.376H71.7483V17.504C71.7483 21.676 74.1843 24.168 77.7963 24.168C79.8963 24.168 81.5763 23.216 82.5283 21.872V24H87.3163V8.376ZM101.536 24H106.296V14.872C106.296 10.672 103.888 8.208 100.276 8.208C98.1755 8.208 96.4955 9.132 95.5435 10.448V8.376H90.7555V24H95.5435V15.516C95.5435 13.388 96.7195 12.212 98.5395 12.212C100.36 12.212 101.536 13.388 101.536 15.516V24ZM108.671 16.16C108.671 21.088 111.723 24.224 115.531 24.224C117.855 24.224 119.507 23.16 120.375 21.788V24H125.163V8.376H120.375V10.588C119.535 9.216 117.883 8.152 115.559 8.152C111.723 8.152 108.671 11.232 108.671 16.16ZM120.375 16.188C120.375 18.68 118.779 20.052 116.959 20.052C115.167 20.052 113.543 18.652 113.543 16.16C113.543 13.668 115.167 12.324 116.959 12.324C118.779 12.324 120.375 13.696 120.375 16.188ZM127.675 16.16C127.675 21.088 130.727 24.224 134.535 24.224C136.859 24.224 138.511 23.16 139.379 21.788V24H144.167V8.376H139.379V10.588C138.539 9.216 136.887 8.152 134.563 8.152C130.727 8.152 127.675 11.232 127.675 16.16ZM139.379 16.188C139.379 18.68 137.783 20.052 135.963 20.052C134.171 20.052 132.547 18.652 132.547 16.16C132.547 13.668 134.171 12.324 135.963 12.324C137.783 12.324 139.379 13.696 139.379 16.188Z" fill="#F9F871"/>
</svg>
