<svg width="152" height="83" viewBox="0 0 152 83" fill="none" xmlns="http://www.w3.org/2000/svg">
<path d="M69 41H9C5.68629 41 3 43.6863 3 47V83" stroke="#E37068" stroke-width="5"/>
<circle cx="7" cy="24" r="7" fill="#E37068"/>
<path fill-rule="evenodd" clip-rule="evenodd" d="M0 5.5H110.369C114.09 5.5 117.997 6.881 121.297 9.00727C124.628 11.1524 127.048 13.864 128.042 16.2173C129.099 18.7195 129.821 23.1417 129.356 27.7108C128.896 32.2314 127.329 36.4092 124.343 39H82H77V44V78V83H82H130C142.15 83 152 73.1503 152 61C152 49.1308 142.601 39.457 130.84 39.0157C132.928 35.7357 133.959 31.8657 134.331 28.2169C134.865 22.9694 134.088 17.6805 132.648 14.2716C131.145 10.7138 127.885 7.30318 124.005 4.80384C120.096 2.28567 115.262 0.5 110.369 0.5H0V5.5ZM82 44H130C139.389 44 147 51.6112 147 61C147 70.3888 139.389 78 130 78H82V44Z" fill="#417898"/>
</svg>
